<svg xmlns="http://www.w3.org/2000/svg" viewBox="0 0 128 130"><defs><style>.radio_svg_1{fill:#cc9aa6;}.radio_svg_2{fill:#7c304a;}.radio_svg_3{fill:none;}</style></defs><g id="レイヤー_2" data-name="レイヤー 2"><g id="レイヤー_1-2" data-name="レイヤー 1"><path class="radio_svg_1" d="M39.73,124.35H33.22A12,12,0,0,0,25.65,127l-1.5,1.21a1,1,0,0,0,.63,1.75H33a5.61,5.61,0,0,0,3.2-1l4.1-2.86A1,1,0,0,0,39.73,124.35Z"/><path class="radio_svg_1" d="M104,128.22l-2.13-1.55a12,12,0,0,0-7.08-2.32h-4.9a1,1,0,0,0-.62,1.75l3.26,2.65A5.62,5.62,0,0,0,96.05,130h7.36A1,1,0,0,0,104,128.22Z"/><path class="radio_svg_1" d="M40.78,65.45c-14.09-.69-21.31,6.87-19.93,19.93s9.27,21,22.67,21.31S64.14,100.5,63.8,86.41,54.86,66.14,40.78,65.45Z"/><path class="radio_svg_1" d="M122.23,90.3a.67.67,0,0,0,1.26.36,23.92,23.92,0,0,0,2.29-7.29,18.11,18.11,0,0,0-.94-9.14.67.67,0,0,0-1.29.18Z"/><path class="radio_svg_1" d="M105.67,49.84,73,27.65a1.39,1.39,0,0,0-1.88.32l-2.33,3.19a1.37,1.37,0,0,0,.36,2l25,16.12a10.76,10.76,0,0,0,5.15,1.7l5.85.36A.8.8,0,0,0,105.67,49.84Z"/><path class="radio_svg_1" d="M68.93,26.71,37.67,6.1a.94.94,0,0,0-1.31.27L35.25,8a1,1,0,0,0,.27,1.33L66.86,29.68a1,1,0,0,0,1.28-.23l1-1.37A1,1,0,0,0,68.93,26.71Z"/><path class="radio_svg_1" d="M35.17,2.21,32,.23A1.53,1.53,0,0,0,29.92.7L27.64,4.22a1.54,1.54,0,0,0,.53,2.16l3.16,1.77a1.51,1.51,0,0,0,2-.46l2.29-3.33A1.52,1.52,0,0,0,35.17,2.21Z"/><path class="radio_svg_1" d="M111.48,53.73,14.22,48.56a11.58,11.58,0,0,0-12.11,13l6.08,49.79A11.58,11.58,0,0,0,19.6,121.49l87.09.66a11.58,11.58,0,0,0,11.62-10.54l4.09-45.27A11.58,11.58,0,0,0,111.48,53.73ZM71.57,66v2.87L11.68,66.37l-.25-2.31a6.37,6.37,0,0,1,.14-2.1l59.85,2.69A6.34,6.34,0,0,1,71.57,66Zm0,4.51v4.17l-59.23-2.2L11.86,68Zm0,5.8v4.18L13,78.51l-.47-4.43Zm0,5.82v4.18L13.65,84.58l-.48-4.43Zm0,5.82V92.1L14.3,90.65l-.47-4.43Zm0,5.82v4.19L15,96.72l-.48-4.43Zm0,5.83v4.2l-56-1-.47-4.43Zm-55.38,8.61-.4-3.75,55.78,1v2.43a6.07,6.07,0,0,1-.27,1.77l-55-.73Q16.24,108.51,16.19,108.17Zm1.73-51,47.79,2.57A6.18,6.18,0,0,1,70.8,63L12.2,60.35A6.18,6.18,0,0,1,17.92,57.21ZM65.33,114l-43-.32a6.19,6.19,0,0,1-5.36-3.19l53.61.72A6.19,6.19,0,0,1,65.33,114Zm28.34-46.5-.24,4.1a1.24,1.24,0,0,1-1.23,1.16H85.87a1.23,1.23,0,0,0,0,2.45h6a1.23,1.23,0,0,1,1.22,1.3l-1.89,32.34a5.51,5.51,0,0,1-11-.4l.58-41.41a6.43,6.43,0,0,1,6.63-6.34h0A6.44,6.44,0,0,1,93.67,67.51Zm17.66,39.19a7.64,7.64,0,0,1-7.49,7.16,6.63,6.63,0,0,1-6.63-7.17,7.65,7.65,0,0,1,7.49-7.16A6.64,6.64,0,0,1,111.33,106.7Z"/><path class="radio_svg_2" d="M93.67,67.51l-.24,4.1a1.24,1.24,0,0,1-1.23,1.16H85.87a1.23,1.23,0,0,0,0,2.45h6a1.23,1.23,0,0,1,1.22,1.3l-1.89,32.34a5.51,5.51,0,0,1-11-.4l.58-41.41a6.43,6.43,0,0,1,6.63-6.34h0A6.44,6.44,0,0,1,93.67,67.51Z"/><ellipse class="radio_svg_2" cx="104.27" cy="106.7" rx="7.33" ry="6.9" transform="translate(-44.21 121.23) rotate(-51.25)"/><rect class="radio_svg_3" width="128" height="130"/></g></g></svg>