<svg xmlns="http://www.w3.org/2000/svg" xmlns:xlink="http://www.w3.org/1999/xlink" viewBox="0 0 1920 500"><defs><style>.cls-1{fill:#7c304a;}.cls-2,.cls-8{fill:none;}.cls-3{fill:#f7e2d6;}.cls-4{fill:#d24147;}.cls-5{clip-path:url(#clip-path);}.cls-6{opacity:0.1;fill:url(#新規パターンスウォッチ_1);}.cls-7{fill:url(#名称未設定グラデーション_133);}.cls-8{stroke:#7e3d54;stroke-miterlimit:10;stroke-width:2px;}</style><clipPath id="clip-path" transform="translate(0)"><path class="cls-1" d="M1167.08,7.39c-71.37,0-142,19.14-208.08,56.35h0c-66,37.2-136.71,56.34-208.08,56.34H0V499.39H1920V7.39Z"/></clipPath><pattern id="新規パターンスウォッチ_1" data-name="新規パターンスウォッチ 1" width="80" height="180" patternTransform="translate(50 44.43)" patternUnits="userSpaceOnUse" viewBox="0 0 80 180"><rect class="cls-2" width="80" height="180"/><rect class="cls-3" x="18" width="4" height="63"/><polygon class="cls-3" points="80 45 62 27 62 0 80 0 80 45"/><polygon class="cls-3" points="40 45 58 27 58 0 40 0 40 45"/><polygon class="cls-3" points="0 45 0 90 0 135 18 153 18 90 18 63 0 45"/><polygon class="cls-3" points="22 63 22 90 22 153 40 135 40 90 40 45 22 63"/><polygon class="cls-3" points="58 27 58 90 58 117 62 117 62 90 62 27 58 27"/><rect class="cls-3" x="18" y="153" width="4" height="27"/><polygon class="cls-3" points="80 180 62 180 62 117 80 135 80 180"/><polygon class="cls-3" points="40 180 58 180 58 117 40 135 40 180"/><polygon class="cls-4" points="0 0 18 0 18 63 0 45 0 0"/><polygon class="cls-4" points="40 0 22 0 22 63 40 45 40 0"/><rect class="cls-4" x="58" width="4" height="27"/><polygon class="cls-4" points="18 63 18 90 18 153 22 153 22 90 22 63 18 63"/><polygon class="cls-4" points="62 27 62 90 62 117 80 135 80 90 80 45 62 27"/><polygon class="cls-4" points="40 45 40 90 40 135 58 117 58 90 58 27 40 45"/><polygon class="cls-4" points="0 135 18 153 18 180 0 180 0 135"/><polygon class="cls-4" points="40 135 22 153 22 180 40 180 40 135"/><rect class="cls-4" x="58" y="117" width="4" height="63"/></pattern><linearGradient id="名称未設定グラデーション_133" x1="-5860" y1="235.34" x2="-4726" y2="235.34" gradientTransform="translate(5860 16.36)" gradientUnits="userSpaceOnUse"><stop offset="0" stop-color="#7c304a" stop-opacity="0"/><stop offset="0.2" stop-color="#7c304a" stop-opacity="0.8"/></linearGradient></defs><g id="レイヤー_2" data-name="レイヤー 2"><g id="レイヤー_1-2" data-name="レイヤー 1"><path class="cls-1" d="M1167.08,7.39c-71.37,0-142,19.14-208.08,56.35h0c-66,37.2-136.71,56.34-208.08,56.34H0V499.39H1920V7.39Z" transform="translate(0)"/><g class="cls-5"><rect class="cls-6" y="1.4" width="1920" height="498.6"/><rect class="cls-7" y="2.4" width="1134" height="498.6" transform="translate(1134 503.39) rotate(180)"/></g><path class="cls-8" d="M0,113.78H750.92C822.29,113.78,893,94.63,959,57.39h0C1025,20.16,1095.71,1,1167.08,1H1920" transform="translate(0)"/></g></g></svg>