<svg xmlns="http://www.w3.org/2000/svg" viewBox="0 0 152 152"><defs><style>.twitter_scale_svg_1,.twitter_scale_svg_2{fill:none;}.twitter_scale_svg_1{stroke:#7c304a;stroke-linecap:round;}.twitter_scale_svg_1,.twitter_scale_svg_3{stroke-miterlimit:10;}.twitter_scale_svg_3{fill:#1da1f2;stroke:#fff;stroke-width:6px;}.twitter_scale_svg_4{fill:#fff;}</style></defs><g id="レイヤー_2" data-name="レイヤー 2"><g id="レイヤー_1-2" data-name="レイヤー 1"><line class="twitter_scale_svg_1" x1="76" y1="7.05" x2="76" y2="0.67"/><line class="twitter_scale_svg_1" x1="99.58" y1="11.2" x2="101.76" y2="5.21"/><line class="twitter_scale_svg_1" x1="120.32" y1="23.18" x2="124.42" y2="18.29"/><line class="twitter_scale_svg_1" x1="135.72" y1="41.52" x2="141.24" y2="38.33"/><line class="twitter_scale_svg_1" x1="143.91" y1="64.03" x2="150.19" y2="62.92"/><line class="twitter_scale_svg_1" x1="143.91" y1="87.97" x2="150.19" y2="89.08"/><line class="twitter_scale_svg_1" x1="135.72" y1="110.48" x2="141.24" y2="113.67"/><line class="twitter_scale_svg_1" x1="16.28" y1="110.48" x2="10.76" y2="113.67"/><line class="twitter_scale_svg_1" x1="8.09" y1="87.97" x2="1.81" y2="89.08"/><line class="twitter_scale_svg_1" x1="8.09" y1="64.03" x2="1.81" y2="62.92"/><line class="twitter_scale_svg_1" x1="16.28" y1="41.52" x2="10.76" y2="38.33"/><line class="twitter_scale_svg_1" x1="31.68" y1="23.18" x2="27.58" y2="18.29"/><line class="twitter_scale_svg_1" x1="52.42" y1="11.2" x2="50.24" y2="5.21"/><rect class="twitter_scale_svg_2" width="152" height="152"/><path class="twitter_scale_svg_3" d="M76,112.5h0A36.5,36.5,0,0,1,39.5,76h0A36.5,36.5,0,0,1,76,39.5h0A36.5,36.5,0,0,1,112.5,76h0A36.5,36.5,0,0,1,76,112.5Z"/><path class="twitter_scale_svg_4" d="M70.6,92.1c13.7,0,21.2-11.36,21.2-21.2,0-.31,0-.63,0-1a15.22,15.22,0,0,0,3.72-3.87,15,15,0,0,1-4.28,1.18,7.55,7.55,0,0,0,3.28-4.13,14.69,14.69,0,0,1-4.74,1.8,7.21,7.21,0,0,0-11,.37,7,7,0,0,0-1.71,6.43A21.12,21.12,0,0,1,61.72,64a7.42,7.42,0,0,0-1,3.74A7.5,7.5,0,0,0,64,73.9,7.59,7.59,0,0,1,60.66,73v.1a7.46,7.46,0,0,0,6,7.3,7,7,0,0,1-2,.27,7.89,7.89,0,0,1-1.39-.13,7.45,7.45,0,0,0,7,5.17,15.13,15.13,0,0,1-11,3.09A21.23,21.23,0,0,0,70.6,92.1"/></g></g></svg>