<svg xmlns="http://www.w3.org/2000/svg" xmlns:xlink="http://www.w3.org/1999/xlink" viewBox="0 0 1920 500"><defs><style>.white_back_svg_1{fill:#e8e4d6;}.white_back_svg_2{fill:none;}.white_back_svg_3{fill:#f7e2d6;}.white_back_svg_4{fill:#d24147;}.white_back_svg_5{clip-path:url(#clip-path);}.white_back_svg_6{opacity:0.1;fill:url(#新規パターンスウォッチ_1);}.white_back_svg_7{fill:url(#名称未設定グラデーション_129);}</style><clipPath id="clip-path"><rect class="white_back_svg_1" width="1920" height="500"/></clipPath><pattern id="新規パターンスウォッチ_1" data-name="新規パターンスウォッチ 1" width="80" height="180" patternTransform="translate(210 -26)" patternUnits="userSpaceOnUse" viewBox="0 0 80 180"><rect class="white_back_svg_2" width="80" height="180"/><rect class="white_back_svg_3" x="18" width="4" height="63"/><polygon class="white_back_svg_3" points="80 45 62 27 62 0 80 0 80 45"/><polygon class="white_back_svg_3" points="40 45 58 27 58 0 40 0 40 45"/><polygon class="white_back_svg_3" points="0 45 0 90 0 135 18 153 18 90 18 63 0 45"/><polygon class="white_back_svg_3" points="22 63 22 90 22 153 40 135 40 90 40 45 22 63"/><polygon class="white_back_svg_3" points="58 27 58 90 58 117 62 117 62 90 62 27 58 27"/><rect class="white_back_svg_3" x="18" y="153" width="4" height="27"/><polygon class="white_back_svg_3" points="80 180 62 180 62 117 80 135 80 180"/><polygon class="white_back_svg_3" points="40 180 58 180 58 117 40 135 40 180"/><polygon class="white_back_svg_4" points="0 0 18 0 18 63 0 45 0 0"/><polygon class="white_back_svg_4" points="40 0 22 0 22 63 40 45 40 0"/><rect class="white_back_svg_4" x="58" width="4" height="27"/><polygon class="white_back_svg_4" points="18 63 18 90 18 153 22 153 22 90 22 63 18 63"/><polygon class="white_back_svg_4" points="62 27 62 90 62 117 80 135 80 90 80 45 62 27"/><polygon class="white_back_svg_4" points="40 45 40 90 40 135 58 117 58 90 58 27 40 45"/><polygon class="white_back_svg_4" points="0 135 18 153 18 180 0 180 0 135"/><polygon class="white_back_svg_4" points="40 135 22 153 22 180 40 180 40 135"/><rect class="white_back_svg_4" x="58" y="117" width="4" height="63"/></pattern><linearGradient id="名称未設定グラデーション_129" x1="786" y1="249.5" x2="1920" y2="249.5" gradientUnits="userSpaceOnUse"><stop offset="0" stop-color="#e8e4d6" stop-opacity="0"/><stop offset="0.2" stop-color="#e8e4d6" stop-opacity="0.8"/></linearGradient></defs><g id="レイヤー_2" data-name="レイヤー 2"><g id="レイヤー_1-2" data-name="レイヤー 1"><rect class="white_back_svg_1" width="1920" height="500"/><g class="white_back_svg_5"><rect class="white_back_svg_6" width="1920" height="500"/><rect class="white_back_svg_7" x="786" width="1134" height="500"/></g></g></g></svg>